<svg xmlns="http://www.w3.org/2000/svg"  viewBox="0 0 80 80" width="160px" height="160px"><path fill="#b0c1d4" d="M14.172,4.5h51.654c5.343,0,9.674,4.331,9.674,9.672v51.654c0,5.343-4.331,9.674-9.672,9.674H14.172 c-5.341,0-9.672-4.331-9.672-9.672V14.172C4.5,8.831,8.831,4.5,14.172,4.5z"/><path fill="#66798f" d="M65.828,76H14.172C8.563,76,4,71.437,4,65.828V14.172C4,8.563,8.563,4,14.172,4h51.654 C71.436,4,76,8.563,76,14.172v51.654C76,71.436,71.437,76,65.828,76z M14.172,5C9.114,5,5,9.114,5,14.172v51.656 C5,70.886,9.114,75,14.172,75h51.656C70.886,75,75,70.885,75,65.826V14.172C75,9.114,70.885,5,65.826,5H14.172z"/><path fill="#ffb5d2" d="M50.271,33.308c3.108,2.221,6.917,3.526,11.029,3.526v-7.911c-0.779,0-1.554-0.081-2.315-0.243 v6.226c-4.112,0-7.918-1.308-11.029-3.526v16.141c0,8.074-6.55,14.62-14.628,14.62c-3.014,0-5.816-0.911-8.143-2.473 c2.657,2.714,6.36,4.398,10.459,4.398c8.078,0,14.628-6.546,14.628-14.62V33.308L50.271,33.308z M53.129,25.329 c-1.588-1.734-2.631-3.976-2.858-6.455v-1.018h-2.195C48.628,21.006,50.514,23.698,53.129,25.329L53.129,25.329z M30.295,53.474 c-0.888-1.164-1.367-2.586-1.365-4.049c0-3.694,2.996-6.688,6.692-6.688c0.688,0,1.373,0.105,2.029,0.314v-8.086 c-0.767-0.105-1.54-0.15-2.315-0.134v6.293c-0.657-0.209-1.341-0.314-2.031-0.314c-3.696,0-6.692,2.994-6.692,6.688 C26.615,50.112,28.111,52.374,30.295,53.474z"/><path fill="#fff" d="M47.956,31.381c3.108,2.221,6.917,3.526,11.029,3.526v-6.226c-2.296-0.489-4.327-1.688-5.856-3.355	c-2.615-1.631-4.499-4.321-5.051-7.471h-5.765v31.591c-0.014,3.682-3.004,6.664-6.692,6.664c-2.173,0-4.104-1.035-5.327-2.639	c-2.183-1.101-3.68-3.363-3.68-5.974c0-3.694,2.996-6.688,6.692-6.688c0.708,0,1.39,0.11,2.031,0.314v-6.291	c-7.936,0.164-14.318,6.644-14.318,14.616c0,3.98,1.59,7.587,4.169,10.222c2.327,1.562,5.13,2.473,8.143,2.473	c8.078,0,14.628-6.546,14.628-14.62L47.956,31.381L47.956,31.381z"/><path fill="#b5ddf5" d="M58.985,28.683v-1.684c-2.071,0.004-4.098-0.576-5.856-1.672 C54.683,27.029,56.73,28.202,58.985,28.683z M48.076,17.856c-0.053-0.302-0.093-0.604-0.12-0.909v-1.018h-7.96v31.593 c-0.012,3.682-3.004,6.664-6.692,6.664c-1.083,0-2.104-0.256-3.01-0.714c1.223,1.603,3.154,2.639,5.327,2.639 c3.688,0,6.678-2.982,6.692-6.664V17.856H48.076z M35.336,34.833V33.04c-0.665-0.091-1.335-0.136-2.008-0.136 c-8.08,0-14.628,6.546-14.628,14.62c0,5.063,2.574,9.524,6.485,12.147c-2.58-2.635-4.169-6.242-4.169-10.222 C21.015,41.477,27.399,34.996,35.336,34.833z"/><path fill="#66798f" d="M47.956,15.929v1.018c0.028,0.306,0.067,0.607,0.12,0.909h0.002h2.193v1.018	c0.227,2.477,1.268,4.717,2.854,6.45c0.001,0.001,0.003,0.002,0.004,0.003c1.751,1.093,3.771,1.672,5.834,1.672	c0.007,0,0.014,0,0.021,0v1.682c0.761,0.162,1.536,0.243,2.315,0.243v7.911c-4.112,0-8.129-1.306-11.237-3.526v16.139	c0,8.074-6.341,14.62-14.419,14.62c-4.091,0-7.788-1.678-10.444-4.383c0.041,0.036,0.055,0.049,0.056,0.049	c0.001,0-0.071-0.064-0.071-0.064c0.005,0.005,0.01,0.01,0.015,0.015c-0.005-0.004-0.01-0.009-0.015-0.013	c-3.911-2.623-6.485-7.084-6.485-12.147c0-8.074,6.548-14.557,14.628-14.557c0.672,0,1.343,0.045,2.008,0.136v1.728	c0.1-0.002,0.201-0.003,0.301-0.003c0.674,0,1.347,0.046,2.014,0.137v8.086c-0.657-0.209-1.341-0.314-2.029-0.314	c-3.696,0-6.692,2.994-6.692,6.688c-0.002,1.462,0.477,2.883,1.363,4.046c0,0,0.001,0,0.001,0.001	c0.905,0.458,1.927,0.714,3.01,0.714c3.688,0,6.68-2.982,6.692-6.664V15.929H47.956 M39.033,15.033l-0.017,32.45	c-0.01,3.122-2.584,5.703-5.712,5.703c-0.824,0-1.614-0.17-2.351-0.507c-0.663-0.948-1.025-2.095-1.023-3.253	c0-3.138,2.553-5.689,5.692-5.689c0.59,0,1.171,0.09,1.726,0.266l1.303,0.415v-1.368v-8.086v-0.873l-0.865-0.118	c-0.481-0.065-0.966-0.109-1.45-0.131V33.04v-0.873l-0.865-0.055C34.765,32.016,34.044,32,33.328,32	C24.711,32,17.7,38.911,17.7,47.524c0,5.185,2.558,10.009,6.848,12.924C27.506,63.427,31.442,65,35.643,65	c8.617,0,15.368-6.992,15.336-15.573V35.123c3.067,1.734,6.758,2.711,10.32,2.711h1v-1v-7.911v-1h-1c-0.44,0-0.88-0.029-1.315-0.085	v-0.84L60,26.031l-1.001,0.001c-1.851,0-3.659-0.535-5.227-1.485c-1.432-1.607-2.295-3.582-2.5-5.721v-0.971v-1h-1h-1.315V15	L39.033,15.033z"/></svg>